<svg version="1.0" xmlns="http://www.w3.org/2000/svg"
 width="256.000000pt" height="256.000000pt" viewBox="0 0 256.000000 350.000000"
 preserveAspectRatio="xMidYMid meet">

<g transform="translate(0.000000,256.000000) scale(0.100000,-0.100000)"
fill="#c6e8ff" stroke="none">
<path d="M1832 1904 c-12 -8 -22 -25 -22 -37 0 -12 29 -73 65 -136 36 -62 65
-117 65 -122 0 -5 -56 -9 -124 -9 -118 0 -126 -1 -140 -22 -22 -32 -20 -51 10
-79 24 -23 32 -24 183 -27 l157 -3 60 -109 59 -110 78 0 c42 0 77 3 77 6 0 15
-354 627 -373 644 -25 24 -64 26 -95 4z"/>
<path d="M348 1789 c-26 -15 -24 -73 4 -99 22 -20 31 -21 296 -18 257 3 274 4
288 22 20 28 17 60 -7 82 -19 18 -42 19 -293 21 -175 2 -277 -1 -288 -8z"/>
<path d="M1053 1783 c-12 -10 -37 -66 -58 -132 l-37 -113 19 -26 c11 -15 31
-30 44 -33 13 -4 111 -7 217 -8 112 -1 192 -5 192 -10 0 -5 -4 -21 -10 -35
l-10 -26 -593 0 c-563 0 -595 -1 -610 -18 -24 -27 -21 -58 9 -81 26 -21 34
-21 669 -21 599 0 643 1 657 18 19 21 68 189 68 231 0 18 -9 40 -20 51 -19 19
-33 20 -233 20 -118 0 -216 3 -220 6 -3 3 -1 19 5 35 l10 29 237 0 c198 0 240
3 259 16 28 20 29 65 1 90 -19 18 -42 19 -298 22 -255 3 -279 1 -298 -15z"/>
<path d="M288 1589 c-29 -16 -23 -73 8 -98 25 -20 39 -21 274 -21 154 0 259 4
279 11 51 18 55 85 5 107 -32 15 -541 16 -566 1z"/>
<path d="M257 1204 c-65 -20 -150 -103 -168 -162 -18 -61 2 -118 51 -147 45
-26 150 -27 198 -2 29 16 32 16 32 2 0 -13 9 -15 37 -13 38 3 39 5 88 157 6
20 3 21 -78 21 l-85 0 -11 -31 c-14 -41 -15 -39 17 -39 l27 -1 -28 -24 c-34
-30 -80 -32 -107 -5 -23 23 -25 48 -6 93 31 73 114 109 155 68 16 -16 33 -21
76 -21 51 0 55 2 55 24 0 50 -84 97 -172 95 -18 0 -55 -7 -81 -15z"/>
<path d="M586 1208 c-3 -7 -27 -86 -54 -176 l-50 -163 66 3 65 3 20 58 c21 65
31 72 82 63 30 -6 35 -11 35 -36 0 -16 -4 -40 -10 -54 l-10 -26 68 0 67 0 13
52 c10 42 9 56 -2 80 -14 27 -13 29 13 43 57 29 65 109 14 142 -36 24 -310 33
-317 11z m223 -72 c16 -19 3 -46 -26 -57 -26 -10 -106 -12 -115 -3 -3 3 -1 21
5 40 10 34 11 34 67 34 37 0 62 -5 69 -14z"/>
<path d="M1005 1198 c-20 -56 -95 -298 -95 -307 0 -7 22 -11 60 -11 70 0 57
-20 123 188 l45 142 -64 0 c-43 0 -66 -4 -69 -12z"/>
<path d="M1157 1123 c-15 -49 -38 -123 -51 -165 l-24 -78 57 0 57 0 29 90 c16
50 31 90 34 90 3 0 4 -40 3 -90 l-4 -90 54 0 53 0 54 86 c29 47 55 83 58 80 4
-4 -21 -89 -45 -154 -3 -10 9 -12 53 -10 l58 3 19 55 c10 30 34 103 52 163
l34 107 -77 0 -78 0 -69 -102 -69 -103 -6 55 c-4 30 -7 76 -8 103 l-1 47 -78
0 -79 0 -26 -87z"/>
<path d="M1667 1123 c-15 -49 -38 -123 -51 -165 l-24 -78 57 0 57 0 29 90 c16
50 33 90 38 90 6 0 8 -36 5 -90 l-5 -90 51 0 51 0 54 85 c30 47 57 88 61 90 4
3 -5 -35 -20 -83 l-27 -87 50 -3 c27 -2 53 0 57 5 6 6 65 182 105 311 3 9 -16
12 -74 12 l-78 0 -69 -102 c-57 -85 -69 -99 -71 -78 -1 14 -5 60 -8 103 l-7
77 -77 0 -77 0 -27 -87z"/>
<path d="M2146 1053 c-27 -87 -51 -164 -54 -170 -3 -10 11 -13 51 -13 50 0 56
2 59 23 3 20 9 22 79 25 72 3 76 2 89 -23 12 -23 19 -25 76 -25 l63 0 -94 168
-93 167 -64 3 -63 2 -49 -157z m147 -14 c16 -28 27 -53 24 -55 -3 -3 -25 -4
-49 -2 l-45 3 15 53 c8 28 17 52 21 52 3 0 19 -23 34 -51z"/>
</g>
</svg>
